<svg xmlns="http://www.w3.org/2000/svg" xmlns:xlink="http://www.w3.org/1999/xlink" width="500" zoomAndPan="magnify" viewBox="0 0 375 374.999991" height="500" preserveAspectRatio="xMidYMid meet" version="1.0"><defs><clipPath id="id1"><path d="M 2 1.171875 L 373.460938 1.171875 L 373.460938 373 L 2 373 Z M 2 1.171875 " clip-rule="nonzero"/></clipPath></defs><g clip-path="url(#id1)"><path fill="rgb(0%, 29.019165%, 67.83905%)" d="M 208.710938 10.535156 L 279.023438 80.808594 L 250.472656 106.140625 L 187.726562 43.429688 L 109.207031 121.90625 L 87.875 143.226562 L 43.789062 187.289062 L 187.71875 331.144531 L 331.65625 187.289062 L 290.941406 146.597656 L 313.722656 115.5 L 364.566406 166.316406 C 376.105469 177.847656 376.105469 196.71875 364.566406 208.257812 L 208.710938 364.039062 C 197.171875 375.570312 178.289062 375.570312 166.742188 364.039062 L 10.886719 208.257812 C -0.652344 196.726562 -0.652344 177.855469 10.886719 166.316406 L 65.976562 111.257812 L 72.71875 104.515625 L 72.71875 38.722656 C 72.71875 34.878906 75.871094 31.730469 79.71875 31.730469 L 111.171875 31.730469 C 115.015625 31.730469 118.167969 34.878906 118.167969 38.722656 L 118.167969 59.09375 L 166.75 10.535156 C 178.289062 -0.996094 197.171875 -0.996094 208.710938 10.535156 Z M 330.011719 61.03125 L 183.566406 191.0625 L 101.226562 171.25 L 187.726562 255.234375 L 250.863281 169.058594 L 277.3125 132.964844 L 300.089844 101.867188 L 314 82.882812 Z M 330.011719 61.03125 " fill-opacity="1" fill-rule="evenodd"/></g></svg>