<svg xmlns="http://www.w3.org/2000/svg" xmlns:xlink="http://www.w3.org/1999/xlink" width="40" zoomAndPan="magnify" viewBox="0 0 30 30.000001" height="40" preserveAspectRatio="xMidYMid meet" version="1.0"><defs><clipPath id="id1"><path d="M 0.484375 0 L 29.515625 0 L 29.515625 29.03125 L 0.484375 29.03125 Z M 0.484375 0 " clip-rule="nonzero"/></clipPath><clipPath id="id2"><path d="M 4 3.453125 L 26.277344 3.453125 L 26.277344 25.765625 L 4 25.765625 Z M 4 3.453125 " clip-rule="nonzero"/></clipPath></defs><g clip-path="url(#id1)"><path fill="rgb(0%, 29.019165%, 67.83905%)" d="M 15 0 C 6.984375 0 0.484375 6.5 0.484375 14.515625 C 0.484375 22.53125 6.984375 29.03125 15 29.03125 C 23.015625 29.03125 29.515625 22.53125 29.515625 14.515625 C 29.515625 6.5 23.015625 0 15 0 " fill-opacity="1" fill-rule="nonzero"/></g><g clip-path="url(#id2)"><path fill="rgb(100%, 100%, 100%)" d="M 16.390625 4.015625 L 20.609375 8.234375 L 18.894531 9.753906 L 15.132812 5.988281 L 10.421875 10.699219 L 9.140625 11.976562 L 6.496094 14.621094 L 15.132812 23.253906 L 23.765625 14.621094 L 21.324219 12.179688 L 22.691406 10.3125 L 25.742188 13.363281 C 26.433594 14.054688 26.433594 15.1875 25.742188 15.878906 L 16.390625 25.226562 C 15.699219 25.917969 14.566406 25.917969 13.871094 25.226562 L 4.519531 15.878906 C 3.828125 15.1875 3.828125 14.054688 4.519531 13.363281 L 7.828125 10.058594 L 8.230469 9.65625 L 8.230469 5.707031 C 8.230469 5.476562 8.421875 5.289062 8.652344 5.289062 L 10.539062 5.289062 C 10.769531 5.289062 10.957031 5.476562 10.957031 5.707031 L 10.957031 6.929688 L 13.871094 4.015625 C 14.566406 3.324219 15.699219 3.324219 16.390625 4.015625 Z M 23.667969 7.046875 L 14.882812 14.847656 L 9.941406 13.660156 L 15.132812 18.699219 L 18.917969 13.527344 L 20.507812 11.363281 L 21.875 9.496094 L 22.707031 8.355469 Z M 23.667969 7.046875 " fill-opacity="1" fill-rule="evenodd"/></g></svg>